<svg xmlns="http://www.w3.org/2000/svg" viewBox="0 0 800 600" width="800" height="600" role="img" aria-label="LIMOUSINE">
  <defs>
    <linearGradient id="g" x1="0" y1="0" x2="1" y2="1">
      <stop offset="0" stop-color="#171717"/>
      <stop offset="1" stop-color="#060606"/>
    </linearGradient>
    <radialGradient id="w" cx="66%" cy="22%" r="52%">
      <stop offset="0" stop-color="#ffffff" stop-opacity=".09"/>
      <stop offset="1" stop-color="#ffffff" stop-opacity="0"/>
    </radialGradient>
    <radialGradient id="s" cx="24%" cy="84%" r="46%">
      <stop offset="0" stop-color="#c8942e" stop-opacity="0.12"/>
      <stop offset="1" stop-color="#c8942e" stop-opacity="0"/>
    </radialGradient>
    <pattern id="hex" width="52" height="60" patternUnits="userSpaceOnUse">
      <path d="M26 2 48 15v30L26 58 4 45V15Z" fill="none" stroke="#ffffff" stroke-opacity=".035" stroke-width="1"/>
    </pattern>
  </defs>
  <rect width="800" height="600" fill="url(#g)"/>
  <rect width="800" height="600" fill="url(#hex)"/>
  <rect width="800" height="600" fill="url(#w)"/>
  <rect width="800" height="600" fill="url(#s)"/>
  <g>
    <path d="M80 420q80 -36 176 -90q112 -66 240 -60q128 4 224 72"
      fill="none" stroke="#ffffff" stroke-opacity=".2" stroke-width="2.4" stroke-linecap="round"/>
    <path d="M224 348q96 -54 208 -60q88 -4 152 18"
      fill="none" stroke="#ffffff" stroke-opacity=".1" stroke-width="1.8" stroke-linecap="round"/>
  </g>
  <line x1="64" y1="492" x2="192" y2="492" stroke="#c8942e" stroke-width="2"/>
  <text x="64" y="540" fill="#ffffff" font-family="Montserrat, Helvetica, Arial, sans-serif" font-size="30" font-weight="600" letter-spacing="2">LIMOUSINE</text>
  <text x="64" y="576" fill="#c8942e" font-family="Montserrat, Helvetica, Arial, sans-serif" font-size="16" font-weight="500" letter-spacing="4">POLITUR</text>
</svg>